<svg width="282" height="144" viewBox="0 0 282 144" fill="none" xmlns="http://www.w3.org/2000/svg">
<path d="M50.0219 111.937V58.5577H67.3597V141.722H50.3733L17.3378 88.3428V141.722H0V58.5577H16.9864L50.0219 111.937Z" fill="white"/>
<path fill-rule="evenodd" clip-rule="evenodd" d="M164.549 99.4147C163.621 100.473 162.694 101.622 161.791 102.749C152.399 113.378 138.439 128.815 130.063 128.815C127.779 128.815 126.764 126.285 126.764 123.501C126.764 119.705 128.54 114.39 131.332 109.329C132.547 106.355 135.012 102.71 137.409 99.166C140.52 94.5666 143.516 90.137 143.516 87.5641C143.516 83.768 140.724 81.2373 135.901 81.2373C133.27 81.2373 131.124 83.6539 129.798 85.1475C129.205 85.8154 128.776 86.2988 128.54 86.2988C125.748 83.2619 122.195 80.7311 118.134 80.7311C98.8435 80.7311 69.4005 105.786 69.4005 132.105C69.4005 138.938 74.7307 143.241 78.0303 143.241C89.4522 143.241 106.712 126.032 114.073 118.692C114.001 119.761 113.93 120.71 113.864 121.584C113.696 123.812 113.565 125.55 113.565 127.55C113.565 134.636 117.626 140.457 126.002 140.457C134.791 140.457 146.504 131.708 157.012 121.576C154.987 128.215 153.766 133.263 153.766 135.649C153.766 142.482 158.588 144 161.38 144C164.426 144 168.233 140.457 168.233 136.661C168.233 131.346 174.071 124.007 182.447 114.643C195.646 100.218 206.56 93.1318 209.352 93.1318C210.621 93.1318 212.144 93.891 212.144 95.9156C212.144 103.002 194.123 114.137 188.031 116.162C183.97 117.933 183.209 119.199 183.209 121.476C183.209 126.791 189.554 142.482 203.768 142.482C211.506 142.482 219.009 138.563 225.957 132.968C226.911 135.04 228.293 136.868 230.104 138.452C233.931 141.8 239.007 143.474 245.333 143.474C253.455 143.474 259.664 140.866 263.959 135.648C263.959 135.804 264.389 137.829 265.248 141.722H282C280.438 138.997 279.657 134.792 279.657 129.107V102.476C279.657 87.5251 270.949 80.0497 253.533 80.0497C237.367 80.0497 228.776 86.5128 227.761 99.4391L242.873 99.6728C243.263 96.8695 244.318 94.8449 246.036 93.5989C247.754 92.353 250.292 91.7301 253.65 91.7301C260.445 91.7301 263.842 93.9104 263.842 98.2711V102.71L242.756 106.915C231.872 109.057 225.819 114.084 224.596 121.993C218.599 127.777 212.334 132.105 206.814 132.105C199.453 132.105 194.377 125.272 194.377 122.489C203.768 117.68 225.089 106.039 225.089 91.1072C225.089 85.0334 220.012 81.2373 215.697 81.2373C207.321 81.2373 193.108 88.5764 173.563 109.582C175.086 105.279 178.386 97.6872 179.655 96.4218C194.63 84.2742 209.606 70.8612 221.028 54.9174C237.272 31.6344 240.826 16.9561 240.826 9.86994C240.826 5.06151 236.003 0 230.927 0C217.728 0 202.753 14.9314 188.793 41.5044C182.195 54.2405 172.182 78.5092 164.549 99.4147ZM199.707 46.5659C190.569 64.7873 186.508 76.6819 186.254 77.4411C186.984 76.7141 187.796 75.9161 188.676 75.0509C194.846 68.989 204.37 59.6322 212.144 48.3374C224.327 30.3691 230.165 17.4622 230.165 13.6661C230.165 11.8945 229.404 10.8822 227.627 10.8822C222.043 10.8822 209.352 27.3322 199.707 46.5659ZM259.976 127.706C257.477 130.12 254.158 131.327 250.019 131.327C247.051 131.327 244.708 130.665 242.99 129.341C241.35 128.017 240.53 126.265 240.53 124.085C240.53 120.036 243.146 117.505 248.379 116.493L263.842 113.222V117.661C263.842 121.866 262.554 125.214 259.976 127.706ZM83.1067 127.55C83.1067 115.909 104.681 92.6257 114.834 92.6257C118.134 92.6257 120.418 94.9033 120.418 97.6872C120.418 102.496 89.1984 129.575 85.3911 129.575C83.8682 129.575 83.1067 128.815 83.1067 127.55Z" fill="white"/>
</svg>
